<svg width="123" height="70" viewBox="0 0 123 70" fill="none" xmlns="http://www.w3.org/2000/svg">
<path d="M19.7389 26.848C19.5709 27.016 19.1629 27.256 18.5149 27.568C17.8909 27.856 17.1229 28 16.2109 28C14.2189 28 12.9589 26.512 12.4309 23.536C11.5909 23.632 10.5829 23.68 9.40688 23.68C8.25488 23.68 7.52288 23.644 7.21088 23.572C6.89888 25.18 6.45488 26.32 5.87888 26.992C5.32688 27.664 4.48688 28 3.35888 28C2.80688 28 2.27888 27.904 1.77488 27.712C1.27088 27.52 0.910875 27.328 0.694875 27.136L0.334875 26.848C1.27088 15.568 2.59088 8.752 4.29488 6.4C4.91888 5.584 5.49488 5.08 6.02288 4.888C6.55088 4.672 7.04288 4.564 7.49888 4.564C7.95488 4.564 8.24288 4.576 8.36288 4.6C8.48288 4.6 8.56688 4.6 8.61488 4.6L8.47088 3.88C8.54288 3.784 8.63888 3.664 8.75888 3.52C8.90288 3.352 9.26288 3.136 9.83888 2.872C10.4149 2.608 11.0869 2.476 11.8549 2.476C13.4389 2.476 14.6869 3.076 15.5989 4.276C16.5349 5.452 17.3629 7.756 18.0829 11.188C18.8269 14.596 19.5229 19.66 20.1709 26.38C20.0749 26.5 19.9309 26.656 19.7389 26.848ZM7.82288 19.432C8.59088 19.336 9.39488 19.288 10.2349 19.288C11.0749 19.288 11.5549 19.3 11.6749 19.324C10.8109 14.956 10.0549 11.26 9.40688 8.236C8.80688 11.548 8.27888 15.28 7.82288 19.432ZM24.6118 28C22.6438 28 21.6598 26.584 21.6598 23.752V12.952L20.8678 10.468C20.9638 10.348 21.0958 10.192 21.2638 10C21.4558 9.808 21.8518 9.556 22.4518 9.244C23.0518 8.932 23.6758 8.776 24.3238 8.776C25.8358 8.776 26.7478 9.736 27.0598 11.656C28.2358 9.832 29.6278 8.92 31.2358 8.92C32.8678 8.92 33.6838 9.688 33.6838 11.224C33.6838 12.568 33.3958 13.672 32.8198 14.536C32.2918 15.304 31.7398 15.916 31.1638 16.372C30.0358 15.364 28.7038 14.716 27.1678 14.428V23.968L27.9598 25.804C27.8638 25.972 27.7318 26.176 27.5638 26.416C27.3958 26.656 27.0238 26.98 26.4478 27.388C25.8718 27.796 25.2598 28 24.6118 28ZM44.8739 9.712C45.1139 10.312 45.2339 10.948 45.2339 11.62C45.2339 12.268 45.2099 12.748 45.1619 13.06C45.1379 13.348 44.9939 13.672 44.7299 14.032C44.4659 14.368 44.1179 14.536 43.6859 14.536C43.2539 14.536 42.6299 14.512 41.8139 14.464V19.756C41.8139 22.108 42.8339 23.668 44.8739 24.436C44.8739 25.324 44.5619 26.14 43.9379 26.884C43.3379 27.628 42.5099 28 41.4539 28C39.9179 28 38.6819 27.436 37.7459 26.308C36.8099 25.18 36.3419 23.716 36.3419 21.916V14.068C35.7179 13.9 35.1539 13.696 34.6499 13.456L34.6139 13.024C34.6139 11.392 35.1779 10.3 36.3059 9.748C36.2099 8.092 36.0059 6.784 35.6939 5.824L35.5499 5.32C35.6459 5.2 35.7779 5.044 35.9459 4.852C36.1379 4.66 36.5339 4.408 37.1339 4.096C37.7339 3.784 38.3579 3.628 39.0059 3.628C40.8779 3.628 41.8139 5.128 41.8139 8.128V9.604C42.5819 9.676 43.6019 9.712 44.8739 9.712ZM49.6782 28C47.7102 28 46.7262 26.584 46.7262 23.752C46.7262 16.552 46.8102 11.812 46.9782 9.532C47.4822 9.028 48.2862 8.776 49.3902 8.776C51.2862 8.776 52.2342 10.276 52.2342 13.276V23.968L53.0262 25.804C52.9302 25.972 52.7982 26.176 52.6302 26.416C52.4622 26.656 52.0902 26.98 51.5142 27.388C50.9382 27.796 50.3262 28 49.6782 28ZM52.3782 3.7C52.3782 4.684 52.1382 5.5 51.6582 6.148C51.1782 6.772 50.4462 7.084 49.4622 7.084C48.5022 7.084 47.7822 6.736 47.3022 6.04C46.8462 5.32 46.4622 4.228 46.1502 2.764C46.2462 2.596 46.3782 2.392 46.5462 2.152C46.7142 1.888 47.0742 1.552 47.6262 1.144C48.2022 0.711998 48.7902 0.495998 49.3902 0.495998C50.4942 0.495998 51.2622 0.783998 51.6942 1.36C52.1502 1.912 52.3782 2.692 52.3782 3.7ZM59.241 13.528C59.241 14.488 60.105 15.352 61.833 16.12C62.529 16.456 63.225 16.828 63.921 17.236C64.641 17.62 65.253 18.196 65.757 18.964C66.261 19.708 66.513 20.62 66.513 21.7C66.513 23.596 65.865 25.12 64.569 26.272C63.297 27.424 61.713 28 59.817 28C57.945 28 56.493 27.592 55.461 26.776C54.429 25.936 53.913 25.06 53.913 24.148C53.913 23.524 54.057 22.972 54.345 22.492C54.657 21.988 54.969 21.652 55.281 21.484L55.713 21.232C55.857 21.448 56.061 21.724 56.325 22.06C56.613 22.372 57.165 22.792 57.981 23.32C58.797 23.848 59.493 24.112 60.069 24.112C60.669 24.112 61.077 24.028 61.293 23.86C61.533 23.668 61.653 23.464 61.653 23.248C61.653 22.84 61.269 22.408 60.501 21.952C59.757 21.496 58.941 21.076 58.053 20.692C57.165 20.284 56.337 19.696 55.569 18.928C54.825 18.16 54.453 17.284 54.453 16.3C54.453 15.316 54.741 14.38 55.317 13.492C55.917 12.604 56.613 11.98 57.405 11.62C57.525 10.852 58.005 10.18 58.845 9.604C59.709 9.028 60.789 8.74 62.085 8.74C63.381 8.74 64.425 9.04 65.217 9.64C66.009 10.24 66.405 11.044 66.405 12.052C66.405 13.06 66.261 13.792 65.973 14.248C65.685 14.704 65.229 15.064 64.605 15.328C63.549 14.152 61.761 13.444 59.241 13.204V13.528ZM77.7802 9.712C78.0202 10.312 78.1402 10.948 78.1402 11.62C78.1402 12.268 78.1162 12.748 78.0682 13.06C78.0442 13.348 77.9002 13.672 77.6362 14.032C77.3722 14.368 77.0242 14.536 76.5922 14.536C76.1602 14.536 75.5362 14.512 74.7202 14.464V19.756C74.7202 22.108 75.7402 23.668 77.7802 24.436C77.7802 25.324 77.4682 26.14 76.8442 26.884C76.2442 27.628 75.4162 28 74.3602 28C72.8242 28 71.5882 27.436 70.6522 26.308C69.7162 25.18 69.2482 23.716 69.2482 21.916V14.068C68.6242 13.9 68.0602 13.696 67.5562 13.456L67.5202 13.024C67.5202 11.392 68.0842 10.3 69.2122 9.748C69.1162 8.092 68.9122 6.784 68.6002 5.824L68.4562 5.32C68.5522 5.2 68.6842 5.044 68.8522 4.852C69.0442 4.66 69.4402 4.408 70.0402 4.096C70.6402 3.784 71.2642 3.628 71.9122 3.628C73.7842 3.628 74.7202 5.128 74.7202 8.128V9.604C75.4882 9.676 76.5082 9.712 77.7802 9.712ZM84.0965 13.528C84.0965 14.488 84.9605 15.352 86.6885 16.12C87.3845 16.456 88.0805 16.828 88.7765 17.236C89.4965 17.62 90.1085 18.196 90.6125 18.964C91.1165 19.708 91.3685 20.62 91.3685 21.7C91.3685 23.596 90.7205 25.12 89.4245 26.272C88.1525 27.424 86.5685 28 84.6725 28C82.8005 28 81.3485 27.592 80.3165 26.776C79.2845 25.936 78.7685 25.06 78.7685 24.148C78.7685 23.524 78.9125 22.972 79.2005 22.492C79.5125 21.988 79.8245 21.652 80.1365 21.484L80.5685 21.232C80.7125 21.448 80.9165 21.724 81.1805 22.06C81.4685 22.372 82.0205 22.792 82.8365 23.32C83.6525 23.848 84.3485 24.112 84.9245 24.112C85.5245 24.112 85.9325 24.028 86.1485 23.86C86.3885 23.668 86.5085 23.464 86.5085 23.248C86.5085 22.84 86.1245 22.408 85.3565 21.952C84.6125 21.496 83.7965 21.076 82.9085 20.692C82.0205 20.284 81.1925 19.696 80.4245 18.928C79.6805 18.16 79.3085 17.284 79.3085 16.3C79.3085 15.316 79.5965 14.38 80.1725 13.492C80.7725 12.604 81.4685 11.98 82.2605 11.62C82.3805 10.852 82.8605 10.18 83.7005 9.604C84.5645 9.028 85.6445 8.74 86.9405 8.74C88.2365 8.74 89.2805 9.04 90.0725 9.64C90.8645 10.24 91.2605 11.044 91.2605 12.052C91.2605 13.06 91.1165 13.792 90.8285 14.248C90.5405 14.704 90.0845 15.064 89.4605 15.328C88.4045 14.152 86.6165 13.444 84.0965 13.204V13.528ZM114.754 18.892C114.994 17.86 116.002 17.344 117.778 17.344C119.554 17.344 120.706 17.212 121.234 16.948C121.522 17.092 121.786 17.392 122.026 17.848C122.266 18.28 122.386 18.748 122.386 19.252C122.386 21.076 120.934 21.988 118.03 21.988C117.958 21.988 117.886 21.988 117.814 21.988C119.134 23.188 120.562 24.34 122.098 25.444L122.746 25.912C122.722 25.96 122.686 26.032 122.638 26.128C122.614 26.224 122.518 26.392 122.35 26.632C122.206 26.872 122.026 27.088 121.81 27.28C121.21 27.76 120.454 28 119.542 28C118.078 28 116.446 27.184 114.646 25.552C113.494 27.184 111.622 28 109.03 28C106.438 28 104.482 27.352 103.162 26.056C101.866 24.736 101.218 23.14 101.218 21.268C101.218 19.372 101.638 17.896 102.478 16.84C103.318 15.784 104.35 15.064 105.574 14.68C104.542 12.688 104.026 10.744 104.026 8.848C104.026 6.928 104.602 5.32 105.754 4.024C106.93 2.704 108.718 2.044 111.118 2.044C115.87 2.044 118.246 4.336 118.246 8.92C118.246 11.536 117.622 13.456 116.374 14.68C115.366 15.688 114.358 16.192 113.35 16.192C113.086 16.192 112.822 16.156 112.558 16.084C113.134 16.948 113.866 17.884 114.754 18.892ZM110.434 10.36C110.434 11.824 110.938 13.408 111.946 15.112C112.906 14.104 113.386 12.508 113.386 10.324C113.386 9.364 113.242 8.644 112.954 8.164C112.69 7.684 112.342 7.444 111.91 7.444C110.926 7.444 110.434 8.416 110.434 10.36ZM107.446 20.188C107.446 22.564 108.682 23.752 111.154 23.752C111.682 23.752 112.186 23.716 112.666 23.644L111.118 22.024C109.774 20.656 108.61 19.288 107.626 17.92C107.506 18.424 107.446 19.18 107.446 20.188ZM40.5622 69.352H40.4182C39.8182 69.784 39.0382 70 38.0782 70C36.7582 70 35.7502 69.232 35.0542 67.696C34.3822 66.16 33.7822 63.364 33.2542 59.308C32.1262 66.004 30.4942 69.352 28.3582 69.352C28.1422 69.352 27.9862 69.34 27.8902 69.316C27.0982 69.772 26.1142 70 24.9382 70C23.7862 70 22.8382 69.556 22.0942 68.668C21.3502 67.756 20.7382 66.112 20.2582 63.736C19.8022 61.36 19.4302 57.868 19.1422 53.26C19.1182 52.396 18.9382 51.628 18.6022 50.956C18.2902 50.26 17.9782 49.792 17.6662 49.552L17.2342 49.192C17.2342 48.784 17.3302 48.28 17.5222 47.68C17.7142 47.056 17.9542 46.54 18.2422 46.132C18.5302 45.7 18.9742 45.316 19.5742 44.98C20.1982 44.644 20.9182 44.476 21.7342 44.476C24.3742 44.476 25.8982 46.18 26.3062 49.588C26.4742 51.172 26.5702 52.816 26.5942 54.52C26.6182 59.512 26.9902 63.088 27.7102 65.248C29.2942 59.104 30.2422 53.404 30.5542 48.148C30.4582 47.812 30.4102 47.44 30.4102 47.032C30.4102 46.624 30.5542 46.192 30.8422 45.736C31.2982 45.016 32.1742 44.656 33.4702 44.656C34.7902 44.656 35.7742 45.004 36.4222 45.7C37.0942 46.396 37.5742 47.668 37.8622 49.516C38.3902 56.212 39.1582 61.468 40.1662 65.284C41.1982 61.684 41.7142 57.712 41.7142 53.368C41.7142 50.8 41.5342 48.088 41.1742 45.232C41.8462 44.728 42.8542 44.476 44.1982 44.476C44.8222 44.476 45.4222 44.572 45.9982 44.764C46.5982 44.956 47.1142 45.424 47.5462 46.168C48.0022 46.912 48.2302 47.908 48.2302 49.156C48.2302 52.012 47.9902 54.724 47.5102 57.292C47.0302 59.86 46.4182 62.008 45.6742 63.736C44.9302 65.464 44.1022 66.832 43.1902 67.84C42.3022 68.848 41.4262 69.352 40.5622 69.352ZM62.8538 59.56C62.8538 62.944 62.1098 65.536 60.6218 67.336C59.1338 69.112 57.2738 70 55.0418 70C53.4818 70 52.0778 69.448 50.8298 68.344C50.1578 67.768 49.6178 66.904 49.2098 65.752C48.8018 64.576 48.5978 63.184 48.5978 61.576C48.5978 59.152 49.0538 57.304 49.9658 56.032C50.8778 54.736 51.8618 53.956 52.9178 53.692C53.3018 52.516 54.1058 51.688 55.3298 51.208C55.8818 51.016 56.4938 50.92 57.1658 50.92C60.9578 50.92 62.8538 53.8 62.8538 59.56ZM53.7458 60.208C53.7458 63.856 54.3938 65.68 55.6898 65.68C56.8418 65.68 57.4178 63.964 57.4178 60.532C57.4178 58.852 57.1418 57.676 56.5898 57.004C56.0618 56.308 55.3178 55.96 54.3578 55.96C53.9498 56.728 53.7458 58.144 53.7458 60.208ZM67.731 70C65.763 70 64.779 68.584 64.779 65.752V54.952L63.987 52.468C64.083 52.348 64.215 52.192 64.383 52C64.575 51.808 64.971 51.556 65.571 51.244C66.171 50.932 66.795 50.776 67.443 50.776C68.955 50.776 69.867 51.736 70.179 53.656C71.355 51.832 72.747 50.92 74.355 50.92C75.987 50.92 76.803 51.688 76.803 53.224C76.803 54.568 76.515 55.672 75.939 56.536C75.411 57.304 74.859 57.916 74.283 58.372C73.155 57.364 71.823 56.716 70.287 56.428V65.968L71.079 67.804C70.983 67.972 70.851 68.176 70.683 68.416C70.515 68.656 70.143 68.98 69.567 69.388C68.991 69.796 68.379 70 67.731 70ZM83.5167 65.752C83.5167 66.928 83.6607 67.804 83.9487 68.38C83.8047 68.764 83.3967 69.136 82.7247 69.496C82.0767 69.832 81.3447 70 80.5287 70C79.7367 70 79.1127 69.76 78.6567 69.28C78.2247 68.776 78.0087 68.104 78.0087 67.264V52.072C78.0087 50.008 77.8047 48.352 77.3967 47.104L77.1807 46.42C77.2767 46.3 77.4087 46.144 77.5767 45.952C77.7687 45.76 78.1647 45.508 78.7647 45.196C79.3887 44.86 80.0247 44.692 80.6727 44.692C82.5687 44.692 83.5167 46.192 83.5167 49.192V60.424C84.0207 60.088 84.5367 59.872 85.0647 59.776C85.7367 57.712 86.3487 54.928 86.9007 51.424C87.5967 51.112 88.5447 50.956 89.7447 50.956C91.3767 50.956 92.1927 51.808 92.1927 53.512C92.1927 54.424 91.8447 55.708 91.1487 57.364C90.4527 59.02 89.5887 60.316 88.5567 61.252L90.7167 64.6C91.4127 65.608 91.9407 66.352 92.3007 66.832L92.8767 67.588C92.5167 68.644 91.8207 69.364 90.7887 69.748C90.3567 69.916 89.8767 70 89.3487 70C88.0767 70 87.1407 69.412 86.5407 68.236L83.5167 62.512V65.752ZM98.4226 55.528C98.4226 56.488 99.2866 57.352 101.015 58.12C101.711 58.456 102.407 58.828 103.103 59.236C103.823 59.62 104.435 60.196 104.939 60.964C105.443 61.708 105.695 62.62 105.695 63.7C105.695 65.596 105.047 67.12 103.751 68.272C102.479 69.424 100.895 70 98.9986 70C97.1266 70 95.6746 69.592 94.6426 68.776C93.6106 67.936 93.0946 67.06 93.0946 66.148C93.0946 65.524 93.2386 64.972 93.5266 64.492C93.8386 63.988 94.1506 63.652 94.4626 63.484L94.8946 63.232C95.0386 63.448 95.2426 63.724 95.5066 64.06C95.7946 64.372 96.3466 64.792 97.1626 65.32C97.9786 65.848 98.6746 66.112 99.2506 66.112C99.8506 66.112 100.259 66.028 100.475 65.86C100.715 65.668 100.835 65.464 100.835 65.248C100.835 64.84 100.451 64.408 99.6826 63.952C98.9386 63.496 98.1226 63.076 97.2346 62.692C96.3466 62.284 95.5186 61.696 94.7506 60.928C94.0066 60.16 93.6346 59.284 93.6346 58.3C93.6346 57.316 93.9226 56.38 94.4986 55.492C95.0986 54.604 95.7946 53.98 96.5866 53.62C96.7066 52.852 97.1866 52.18 98.0266 51.604C98.8906 51.028 99.9706 50.74 101.267 50.74C102.563 50.74 103.607 51.04 104.399 51.64C105.191 52.24 105.587 53.044 105.587 54.052C105.587 55.06 105.443 55.792 105.155 56.248C104.867 56.704 104.411 57.064 103.787 57.328C102.731 56.152 100.943 55.444 98.4226 55.204V55.528Z" fill="black"/>
</svg>
