<svg width="59" height="75" viewBox="0 0 59 75" fill="none" xmlns="http://www.w3.org/2000/svg">
<path d="M31.5464 3.264C31.4184 3.072 31.2264 2.784 30.9704 2.4C30.7784 1.952 30.7464 1.664 30.8744 1.536C31.0024 1.408 31.1944 1.43999 31.4504 1.632C31.7704 1.824 31.9624 1.952 32.0264 2.016C33.1784 2.848 34.2344 4 35.1944 5.472C36.2184 6.944 37.1144 8.576 37.8824 10.368C38.7144 12.096 39.4504 13.92 40.0904 15.84C40.7304 17.76 41.2424 19.584 41.6264 21.312C42.5864 25.536 43.3864 29.696 44.0264 33.792C44.7304 37.888 45.0824 42.112 45.0824 46.464C45.0824 46.592 45.0824 46.976 45.0824 47.616C45.1464 48.256 45.0504 48.64 44.7944 48.768C44.6024 48.64 44.3784 48.32 44.1224 47.808C43.9304 47.296 43.8024 46.944 43.7384 46.752C42.9704 44.384 42.2664 41.696 41.6264 38.688C41.0504 35.616 40.5064 32.832 39.9944 30.336C39.6104 28.416 39.2584 26.592 38.9384 24.864C38.6184 23.072 38.2344 21.344 37.7864 19.68C37.4024 18.016 36.9224 16.352 36.3464 14.688C35.8344 12.96 35.1944 11.168 34.4264 9.31199C34.2984 9.056 34.0744 8.608 33.7544 7.96799C33.4984 7.328 33.2104 6.688 32.8904 6.048C32.5704 5.408 32.2824 4.832 32.0264 4.32C31.7704 3.744 31.6104 3.392 31.5464 3.264ZM54.5864 74.4C53.8824 74.016 53.4024 73.76 53.1464 73.632C52.8904 73.568 52.4104 73.312 51.7064 72.864C50.1704 71.968 48.7624 70.816 47.4824 69.408C46.2024 67.936 45.0504 66.336 44.0264 64.608C43.0024 62.88 42.0744 61.056 41.2424 59.136C40.4744 57.152 39.8024 55.2 39.2264 53.28C37.9464 54.112 36.4104 54.624 34.6184 54.816C32.8904 54.944 31.2904 55.008 29.8184 55.008C27.9624 55.008 26.1064 54.944 24.2504 54.816C22.4584 54.688 20.6344 54.624 18.7784 54.624C16.9864 57.952 15.2904 61.184 13.6904 64.32C12.1544 67.392 10.9384 70.272 10.0424 72.96C10.0424 73.024 10.0104 73.152 9.94638 73.344C9.88238 73.6 9.78638 73.728 9.65838 73.728C9.46638 73.728 9.37038 73.504 9.37038 73.056C9.37038 72.608 9.37038 72.32 9.37038 72.192C9.37038 69.632 9.97838 66.784 11.1944 63.648C12.4744 60.448 13.8824 57.312 15.4184 54.24L13.9784 54.144C13.5944 55.04 13.0504 56.288 12.3464 57.888C11.7064 59.488 11.0664 61.152 10.4264 62.88C9.85038 64.608 9.30638 66.272 8.79438 67.872C8.34638 69.472 8.12238 70.752 8.12238 71.712C8.12238 71.904 8.02638 72 7.83438 72C7.57838 72 7.38638 71.808 7.25838 71.424C7.13038 70.976 7.00238 70.496 6.87438 69.984C6.81038 69.472 6.74638 68.96 6.68238 68.448C6.68238 67.872 6.68238 67.488 6.68238 67.296C6.68238 65.056 6.97038 62.72 7.54638 60.288C8.12238 57.792 8.89038 55.52 9.85038 53.472L8.60238 53.28C8.02638 54.688 7.48238 56.096 6.97038 57.504C6.45838 58.848 6.01038 60.256 5.62638 61.728C5.62638 61.856 5.59438 62.016 5.53038 62.208C5.46638 62.4 5.37038 62.464 5.24238 62.4C5.11438 62.144 5.01838 61.856 4.95438 61.536C4.95438 61.152 4.95438 60.832 4.95438 60.576C4.95438 57.888 5.43438 55.296 6.39438 52.8C6.71438 52.16 7.03438 51.84 7.35438 51.84C8.69838 51.456 10.0424 51.232 11.3864 51.168C12.7944 51.104 14.2344 51.072 15.7064 51.072C18.9064 51.072 22.0744 51.328 25.2104 51.84C28.3464 52.288 31.4824 52.512 34.6184 52.512C36.1544 52.512 37.5624 52.384 38.8424 52.128L38.6504 50.592C37.9464 50.784 37.1784 50.912 36.3464 50.976C35.5784 51.04 34.8424 51.072 34.1384 51.072C31.6424 51.072 29.0504 50.816 26.3624 50.304C23.7384 49.792 21.2104 49.184 18.7784 48.48C18.6504 48.352 18.3944 48.256 18.0104 48.192C17.6264 48.064 17.4344 47.904 17.4344 47.712C17.4344 47.584 17.6264 47.488 18.0104 47.424C18.3944 47.296 18.6504 47.232 18.7784 47.232C19.6744 47.168 20.5384 47.136 21.3704 47.136C22.2664 47.072 23.1624 47.04 24.0584 47.04C25.5304 47.04 27.0024 47.072 28.4744 47.136C29.9464 47.136 31.4504 47.136 32.9864 47.136C33.7544 47.136 34.5544 47.136 35.3864 47.136C36.2184 47.136 37.0184 47.104 37.7864 47.04L37.5944 45.984H36.3464C33.2744 45.984 30.2024 45.696 27.1304 45.12C24.1224 44.544 21.0824 44.256 18.0104 44.256C15.3864 44.256 13.0504 44.576 11.0024 45.216C9.01838 45.856 7.29038 46.592 5.81838 47.424C4.41038 48.256 3.25838 49.088 2.36238 49.92C1.46638 50.752 0.826375 51.36 0.442375 51.744C0.314375 51.808 0.250375 51.84 0.250375 51.84C0.186375 51.84 0.154375 51.776 0.154375 51.648C0.154375 51.584 0.186375 51.52 0.250375 51.456C1.40238 49.216 2.81038 47.36 4.47438 45.888C6.13838 44.352 8.18638 43.2 10.6184 42.432C13.0504 37.248 15.5464 32.096 18.1064 26.976C20.7304 21.856 23.4824 16.8 26.3624 11.808C26.4264 11.68 26.5544 11.488 26.7464 11.232C26.9384 10.912 27.1304 10.752 27.3224 10.752C27.3864 10.816 27.4184 10.88 27.4184 10.944V11.136C27.4184 11.648 27.3864 12.032 27.3224 12.288C26.1064 17.472 24.3144 22.464 21.9464 27.264C19.5784 32.064 17.1464 36.8 14.6504 41.472L16.4744 41.376C16.6664 40.992 17.1464 40.16 17.9144 38.88C18.7464 37.6 19.6104 36.288 20.5064 34.944C21.4664 33.536 22.3304 32.288 23.0984 31.2C23.8664 30.048 24.3464 29.472 24.5384 29.472L24.6344 29.76C24.6344 30.08 24.4424 30.784 24.0584 31.872C23.6744 32.96 23.2264 34.144 22.7144 35.424C22.2024 36.704 21.6904 37.92 21.1784 39.072C20.7304 40.16 20.4104 40.928 20.2184 41.376C20.6024 41.376 20.9864 41.408 21.3704 41.472C21.7544 41.472 22.1384 41.472 22.5224 41.472C23.6744 39.168 24.8904 36.768 26.1704 34.272C27.5144 31.712 28.6664 29.12 29.6264 26.496C30.5864 23.872 31.2264 21.216 31.5464 18.528C31.9304 15.84 31.7384 13.184 30.9704 10.56C30.9704 10.88 30.8744 11.52 30.6824 12.48C30.5544 13.44 30.3624 14.464 30.1064 15.552C29.8504 16.576 29.5944 17.504 29.3384 18.336C29.0824 19.104 28.8264 19.488 28.5704 19.488C28.3784 19.488 28.2824 19.36 28.2824 19.104C28.3464 18.848 28.3784 18.688 28.3784 18.624C28.3784 16.96 28.4744 15.328 28.6664 13.728C28.9224 12.064 29.0504 10.4 29.0504 8.736C29.0504 6.496 28.6984 4.32 27.9944 2.20799C27.9944 2.144 27.8984 1.888 27.7064 1.44C27.5144 0.927998 27.5784 0.671997 27.8984 0.671997C28.0264 0.671997 28.2504 0.831997 28.5704 1.152C29.2104 1.792 29.8184 2.656 30.3944 3.744C31.0344 4.832 31.6104 6.016 32.1224 7.296C32.6344 8.512 33.1144 9.728 33.5624 10.944C34.0104 12.16 34.3624 13.184 34.6184 14.016C35.4504 16.768 36.1224 19.552 36.6344 22.368C37.2104 25.12 37.6904 27.904 38.0744 30.72C38.5224 33.472 38.9704 36.256 39.4184 39.072C39.8664 41.888 40.3784 44.672 40.9544 47.424C41.5304 50.112 42.2024 52.736 42.9704 55.296C43.8024 57.856 44.7944 60.288 45.9464 62.592C47.0984 64.896 48.4104 67.04 49.8824 69.024C51.4184 70.944 53.1784 72.64 55.1624 74.112C55.4824 74.432 55.5784 74.624 55.4504 74.688C55.3864 74.816 55.0984 74.72 54.5864 74.4ZM54.3944 66.24C54.4584 66.624 54.4264 66.816 54.2984 66.816C54.1704 66.752 54.0104 66.624 53.8184 66.432C53.6904 66.24 53.5304 66.016 53.3384 65.76C53.2104 65.504 53.1464 65.344 53.1464 65.28C51.6104 62.464 50.3944 59.616 49.4984 56.736C48.6024 53.792 47.8984 50.848 47.3864 47.904C46.8744 44.896 46.4264 41.888 46.0424 38.88C45.7224 35.808 45.3064 32.704 44.7944 29.568C44.3464 26.368 43.7384 23.136 42.9704 19.872C42.2024 16.608 41.1144 13.28 39.7064 9.888C39.6424 9.76 39.5464 9.536 39.4184 9.216C39.2904 8.896 39.2904 8.704 39.4184 8.64C39.5464 8.64 39.7064 8.736 39.8984 8.928L40.2824 9.31199C41.6904 10.976 42.9384 13.184 44.0264 15.936C45.1144 18.688 46.0744 21.632 46.9064 24.768C47.7384 27.904 48.4104 31.008 48.9224 34.08C49.4984 37.152 49.9464 39.84 50.2664 42.144C50.7784 45.792 51.3224 49.632 51.8984 53.664C52.4744 57.696 53.2104 61.504 54.1064 65.088L54.3944 66.24ZM25.8824 41.856C27.7384 42.048 29.5624 42.272 31.3544 42.528C33.2104 42.784 35.0664 42.976 36.9224 43.104C36.2184 39.712 35.6104 36.352 35.0984 33.024C34.5864 29.696 34.1064 26.304 33.6584 22.848C32.8264 26.176 31.6744 29.408 30.2024 32.544C28.7944 35.68 27.3544 38.784 25.8824 41.856ZM57.4664 73.344C56.1864 72.768 55.0664 72.224 54.1064 71.712C53.1464 71.136 52.3144 70.368 51.6104 69.408C50.5224 67.936 49.6584 66.464 49.0184 64.992C48.4424 63.52 47.9624 62.144 47.5784 60.864C47.4504 60.352 47.3224 59.776 47.1944 59.136C47.1304 58.496 47.1624 58.176 47.2904 58.176C47.5464 58.176 47.8664 58.592 48.2504 59.424C48.6344 60.256 48.9864 60.96 49.3064 61.536C50.2664 63.52 51.4824 65.536 52.9544 67.584C54.4264 69.568 56.0264 71.2 57.7544 72.48C58.2664 72.928 58.4264 73.216 58.2344 73.344C58.0424 73.472 57.7864 73.472 57.4664 73.344ZM0.730375 54.912C0.730375 54.912 0.666375 54.912 0.538375 54.912H0.442375C0.442375 54.72 0.474375 54.528 0.538375 54.336C0.602375 54.144 0.666375 53.952 0.730375 53.76C1.24238 52.672 1.72238 51.872 2.17038 51.36C2.68238 50.784 3.48238 50.176 4.57037 49.536C5.21038 49.152 6.10638 48.768 7.25838 48.384C8.41038 48 9.33838 47.808 10.0424 47.808C10.1704 47.808 10.3304 47.84 10.5224 47.904C10.7784 47.904 10.9064 48 10.9064 48.192C10.9064 48.384 10.5544 48.64 9.85038 48.96C9.21038 49.28 8.79438 49.504 8.60238 49.632C6.17038 51.104 4.37838 52.224 3.22638 52.992C2.07438 53.76 1.24238 54.4 0.730375 54.912Z" fill="black"/>
</svg>
